<svg width="16" height="16" viewBox="0 0 16 16" fill="none" xmlns="http://www.w3.org/2000/svg">
<path fill-rule="evenodd" clip-rule="evenodd" d="M6.69696 4.83974H13.6519L12.7372 14.7993C12.694 15.2682 12.2957 15.6245 11.8148 15.6245H4.99956C4.51865 15.6245 4.12037 15.2682 4.07724 14.7993L3.2474 5.76405L6.69696 4.83974ZM2.86015 3.27586C2.38221 3.40392 1.96303 3.79667 2.06634 4.18227L2.3779 5.34499C2.39593 5.41227 2.45793 5.45799 2.54046 5.43586L13.8492 2.4057C13.9318 2.38358 13.9626 2.31296 13.9446 2.24574L13.633 1.08302C13.5287 0.694018 12.9702 0.566924 12.4923 0.694955L9.53643 1.48699L9.35656 0.815674C9.27215 0.500705 8.94356 0.310643 8.62849 0.395049L6.05603 1.08436C5.74081 1.16917 5.55162 1.49705 5.63606 1.81221L5.81603 2.48389L2.86015 3.27586ZM6.29837 2.35458L6.11849 1.68324C6.11195 1.65886 6.11534 1.63288 6.12792 1.611C6.14051 1.58911 6.16126 1.57312 6.18562 1.56652L8.75743 0.877393C8.7695 0.874034 8.78212 0.873111 8.79456 0.874677C8.80699 0.876242 8.81899 0.880266 8.82985 0.886513C8.84071 0.89276 8.85022 0.901106 8.85783 0.911064C8.86543 0.921022 8.87098 0.932394 8.87415 0.944518L9.05412 1.61617L6.29837 2.35458ZM4.99499 6.98521L5.50556 12.5439H6.54312L6.03259 6.98521H4.99499ZM8.93099 6.98521H7.89778L7.88374 12.5439H8.91699L8.93099 6.98521ZM11.6342 6.98521H10.5966L10.086 12.5439H11.1236L11.6342 6.98521Z" fill="#FCFCFD"/>
</svg>
