<svg width="14" height="14" viewBox="0 0 14 14" fill="none" xmlns="http://www.w3.org/2000/svg">
<path d="M9.13279 1.31325L9.38829 2.8465C9.75562 3.05408 10.0931 3.31049 10.3915 3.60875C10.6897 3.90728 10.9459 4.24486 11.1533 4.61225L12.687 4.8675C13.247 4.96 13.9575 4.62125 14 3.819C14.0003 3.139 13.387 2.6175 12.7175 2.715L13.2818 2.30925C13.813 1.896 13.8613 1.0985 13.3813 0.61875C12.9008 0.13825 12.0843 0.17 11.685 0.72575L11.285 1.2825C11.3825 0.613 10.861 0 10.181 0C9.36854 0.0495 9.02604 0.788 9.13279 1.31325ZM5.53029 3.52025C5.25379 3.79675 4.66879 4.52725 3.99854 5.46425C3.68909 5.89861 3.38712 6.33825 3.09279 6.783C3.48879 7.62225 4.04279 8.18975 4.04279 8.18975C4.08724 8.23708 4.11153 8.29985 4.11052 8.36477C4.10951 8.42969 4.08329 8.49167 4.03739 8.5376C3.9915 8.58353 3.92953 8.6098 3.86461 8.61085C3.79969 8.61191 3.73691 8.58766 3.68954 8.54325C3.68954 8.54325 3.19129 8.0545 2.77154 7.27475C2.46501 7.7474 2.16828 8.22633 1.88154 8.71125C1.20054 9.8685 0.605293 11.0328 0.276543 11.978C0.111793 12.4505 0.0157931 12.8688 0.00179314 13.1905C-0.0119569 13.512 0.0542932 13.7168 0.168793 13.8315C0.283793 13.9465 0.488293 14.0125 0.810043 13.9985C1.13179 13.9845 1.55004 13.8885 2.02254 13.7242C2.3361 13.6126 2.64471 13.4876 2.94754 13.3495C2.54104 13.0645 2.27504 12.7863 2.27504 12.7863C2.22947 12.7391 2.20422 12.676 2.20475 12.6104C2.20527 12.5449 2.23152 12.4822 2.27784 12.4358C2.32416 12.3894 2.38684 12.3631 2.45239 12.3625C2.51794 12.3618 2.58111 12.387 2.62829 12.4325C2.62829 12.4325 3.01429 12.8 3.49454 13.0927C4.10457 12.7906 4.70315 12.4659 5.28904 12.1193C6.44629 11.4385 7.59904 10.6722 8.53604 10.0017C8.94021 9.71366 9.33765 9.41625 9.72804 9.10975C8.40679 8.5185 7.56154 7.46425 7.56154 7.46425C7.54074 7.43882 7.52516 7.40955 7.51567 7.3781C7.50619 7.34665 7.50299 7.31364 7.50627 7.28095C7.50954 7.24826 7.51922 7.21654 7.53475 7.1876C7.55028 7.15865 7.57137 7.13305 7.59679 7.11225C7.62222 7.09145 7.65149 7.07587 7.68295 7.06638C7.7144 7.0569 7.74741 7.0537 7.78009 7.05697C7.81278 7.06025 7.8445 7.06993 7.87345 7.08546C7.90239 7.10099 7.92799 7.12207 7.94879 7.1475C7.94879 7.1475 8.86154 8.23725 10.1753 8.745C10.3035 8.63575 10.4083 8.54175 10.48 8.47C11.5858 7.3645 11.423 5.34725 10.038 3.9625C9.34554 3.27 8.49529 2.88325 7.67954 2.8075C6.86904 2.73225 6.06404 2.98975 5.53029 3.52025ZM4.92679 9.177C4.99309 9.17701 5.05667 9.20336 5.10354 9.25025L5.45704 9.60375C5.50258 9.6509 5.52778 9.71405 5.52721 9.7796C5.52664 9.84515 5.50035 9.90785 5.454 9.9542C5.40765 10.0006 5.34494 10.0268 5.27939 10.0274C5.21384 10.028 5.15069 10.0028 5.10354 9.95725L4.75004 9.60375C4.71509 9.56879 4.69129 9.52425 4.68165 9.47576C4.672 9.42727 4.67696 9.37701 4.69587 9.33134C4.71479 9.28566 4.74683 9.24662 4.78793 9.21915C4.82903 9.19168 4.87736 9.17701 4.92679 9.177Z" fill="#0F1014"/>
</svg>
