<svg width="16" height="16" viewBox="0 0 16 16" fill="none" xmlns="http://www.w3.org/2000/svg">
<g clip-path="url(#clip0_579_3032)">
<path d="M10.9894 5.38513C9.44757 6.32304 9.2746 8.33401 9.33611 9.60741C10.5088 8.22886 11.9539 7.49838 12.7791 7.36063C11.4523 7.88042 10.4526 8.91538 9.62111 10.0581C9.28565 10.646 8.97694 11.2213 8.80179 11.8564C8.6104 11.1128 8.28378 10.4175 7.93142 9.70709C6.94172 8.16493 5.72534 6.74979 4.04726 5.97675C5.10485 6.21733 6.92071 7.272 8.33431 9.14519C8.51044 7.50157 8.43788 4.88506 6.51315 3.55485C4.39545 2.09143 1.72231 1.59213 0.402146 1.42772C0.102163 1.39039 -0.106351 1.71956 0.0575345 1.97362C0.48979 2.64375 1.07684 3.83691 1.16343 5.46643C1.24964 7.09507 1.3496 10.1044 7.16476 10.554C8.02854 12.1326 8.45391 12.9741 8.61117 14.4826C8.6231 14.597 8.78484 14.6078 8.81224 14.496C8.91929 14.0592 9.20078 11.8625 10.1733 10.7447C14.6712 10.6597 14.8831 8.3472 15.023 7.09717C15.1509 5.95026 15.5865 5.10483 15.9378 4.58957C16.1058 4.34298 15.9121 4.01114 15.6145 4.03483C14.542 4.12022 12.5939 4.40951 10.9894 5.38513Z" fill="#FCFCFD"/>
</g>
<defs>
<clipPath id="clip0_579_3032">
<rect width="16" height="16" fill="white"/>
</clipPath>
</defs>
</svg>
