<svg width="23" height="23" viewBox="0 0 23 23" fill="none" xmlns="http://www.w3.org/2000/svg">
<path d="M18.1917 7.75986V12.4807C18.1917 15.3041 16.5783 16.514 14.1583 16.514H6.10083C5.68833 16.514 5.29417 16.4774 4.9275 16.3949C4.69833 16.3582 4.47834 16.2941 4.27668 16.2207C2.90167 15.7074 2.0675 14.5157 2.0675 12.4807V7.75986C2.0675 4.93653 3.68083 3.72656 6.10083 3.72656H14.1583C16.2117 3.72656 17.6875 4.59739 18.0817 6.58656C18.1458 6.95322 18.1917 7.32903 18.1917 7.75986Z" stroke="#0F1014" stroke-width="1.5" stroke-miterlimit="10" stroke-linecap="round" stroke-linejoin="round"/>
<path d="M20.9427 10.5102V15.2311C20.9427 18.0544 19.3294 19.2644 16.9094 19.2644H8.85186C8.17353 19.2644 7.55937 19.1728 7.0277 18.9711C5.93687 18.5678 5.19436 17.7336 4.92853 16.3953C5.29519 16.4778 5.68936 16.5144 6.10186 16.5144H14.1594C16.5794 16.5144 18.1927 15.3044 18.1927 12.4811V7.76022C18.1927 7.32938 18.156 6.94441 18.0827 6.58691C19.8244 6.95358 20.9427 8.18189 20.9427 10.5102Z" stroke="#0F1014" stroke-width="1.5" stroke-miterlimit="10" stroke-linecap="round" stroke-linejoin="round"/>
<path d="M10.1236 12.5451C11.4601 12.5451 12.5436 11.4616 12.5436 10.1251C12.5436 8.78856 11.4601 7.70508 10.1236 7.70508C8.78704 7.70508 7.70355 8.78856 7.70355 10.1251C7.70355 11.4616 8.78704 12.5451 10.1236 12.5451Z" stroke="#0F1014" stroke-width="1.5" stroke-miterlimit="10" stroke-linecap="round" stroke-linejoin="round"/>
<path d="M4.88165 8.1084V12.1418" stroke="#0F1014" stroke-width="1.5" stroke-miterlimit="10" stroke-linecap="round" stroke-linejoin="round"/>
<path d="M15.3699 8.1084V12.1418" stroke="#0F1014" stroke-width="1.5" stroke-miterlimit="10" stroke-linecap="round" stroke-linejoin="round"/>
</svg>
