<svg width="20" height="21" viewBox="0 0 20 21" fill="none" xmlns="http://www.w3.org/2000/svg">
<path d="M10 6.34863V9.12363" stroke="#FCFCFD" stroke-width="1.5" stroke-miterlimit="10" stroke-linecap="round"/>
<path d="M10.0167 2.64941C6.95001 2.64941 4.46667 5.13275 4.46667 8.19941V9.94941C4.46667 10.5161 4.23334 11.3661 3.94167 11.8494L2.88334 13.6161C2.23334 14.7077 2.68334 15.9244 3.88334 16.3244C7.86667 17.6494 12.175 17.6494 16.1583 16.3244C17.2833 15.9494 17.7667 14.6327 17.1583 13.6161L16.1 11.8494C15.8083 11.3661 15.575 10.5077 15.575 9.94941V8.19941C15.5667 5.14941 13.0667 2.64941 10.0167 2.64941Z" stroke="#FCFCFD" stroke-width="1.5" stroke-miterlimit="10" stroke-linecap="round"/>
<path d="M12.775 16.666C12.775 18.191 11.525 19.441 10 19.441C9.24167 19.441 8.54167 19.1243 8.04167 18.6243C7.54167 18.1243 7.22501 17.4243 7.22501 16.666" stroke="#FCFCFD" stroke-width="1.5" stroke-miterlimit="10"/>
</svg>
