<svg width="16" height="16" viewBox="0 0 16 16" fill="none" xmlns="http://www.w3.org/2000/svg">
<path d="M15.4499 5.79976C14.9749 5.19976 14.2499 4.77476 13.3749 4.57476C11.8499 4.22476 10.3499 5.02476 9.69992 6.37476C9.64992 6.47476 9.59992 6.54976 9.52492 6.62476L9.84992 8.02476L10.0249 8.79976L10.1749 9.49976L12.1749 9.94976C13.0499 10.1498 13.8999 10.0998 14.5749 9.79976C15.2499 9.49976 15.7499 8.92476 15.9499 8.04976C16.1249 7.17476 15.9249 6.39976 15.4499 5.79976ZM14.5249 7.72476C14.4749 7.97476 14.3749 8.17476 14.2249 8.29976C14.1499 8.37476 14.0499 8.44976 13.9499 8.49976C13.5749 8.67476 13.0499 8.67476 12.4499 8.54976L10.0749 7.99976C10.2499 7.89976 10.3999 7.77476 10.5499 7.62476C10.7499 7.42476 10.8999 7.19976 10.9999 6.97476C11.0999 6.77476 11.1999 6.62476 11.3499 6.47476C11.7999 6.02476 12.4249 5.84976 13.0499 5.97476C13.5999 6.09976 14.0499 6.34976 14.3249 6.67476C14.5499 6.97476 14.6249 7.32476 14.5249 7.72476ZM0.624918 5.04976C0.502705 5.02604 0.37604 5.04877 0.269698 5.1135C0.163356 5.17823 0.0849865 5.2803 0.0499182 5.39976C-0.175082 6.34976 0.424918 7.29976 1.39992 7.52476L5.99992 8.57476L5.44992 6.14976L0.624918 5.04976ZM9.94992 12.1498L7.52492 1.37476C7.29992 0.424757 6.37492 -0.175243 5.39992 0.0247569C5.14992 0.0747569 4.97492 0.349757 5.04992 0.599757L6.87492 8.67476C6.89992 8.74976 6.89992 8.79976 6.89992 8.87476C6.89992 9.22476 6.69992 9.52476 6.39992 9.67476C5.02492 10.2998 4.24992 11.8248 4.59992 13.3498C4.79992 14.2248 5.22492 14.9748 5.82492 15.4248C6.42492 15.8998 7.19992 16.0998 8.07492 15.8998C8.94992 15.6998 9.52492 15.1998 9.82492 14.5248C10.0999 13.8748 10.1499 13.0248 9.94992 12.1498ZM8.49992 13.9498C8.44992 14.0498 8.37492 14.1498 8.29992 14.2248C8.14992 14.3748 7.97492 14.4498 7.72492 14.5248C7.29992 14.6248 6.97492 14.5498 6.67492 14.3248C6.34992 14.0748 6.07492 13.5998 5.97492 13.0498C5.82492 12.4498 6.02492 11.7998 6.47492 11.3498C6.62492 11.1998 6.79992 11.0748 6.97492 10.9998C7.22492 10.8748 7.44992 10.7248 7.62492 10.5248C7.77492 10.3748 7.89992 10.2248 7.99992 10.0498L8.54992 12.4498C8.67492 13.0498 8.64992 13.5998 8.49992 13.9498Z" fill="#0F1014"/>
</svg>
