<svg width="42" height="43" viewBox="0 0 42 43" fill="none" xmlns="http://www.w3.org/2000/svg">
<path d="M17.7594 39.6143C17.953 39.7751 18.1597 39.9359 18.3677 40.0822C18.434 40.1288 18.4741 40.1557 18.4813 40.1623C18.5355 40.202 18.6011 40.2232 18.6683 40.2227C18.7219 40.2232 18.7748 40.2107 18.8225 40.1863C18.8702 40.1618 18.9112 40.1261 18.942 40.0822C18.9925 40.0092 19.0124 39.9194 18.9974 39.8319C18.9824 39.7445 18.9338 39.6663 18.8619 39.6143L18.7215 39.5146C18.6145 39.4345 18.4544 39.3203 18.2536 39.1602C17.0077 38.1674 15.9585 36.9503 15.16 35.5718C12.2738 30.581 13.4295 24.0395 17.913 20.0102C19.7034 18.4427 21.7108 17.1419 23.873 16.1481C14.0043 23.6917 15.7014 30.3395 15.7815 30.6342C15.801 30.7098 15.8466 30.7761 15.9102 30.8213C15.9739 30.8666 16.0514 30.8879 16.1293 30.8816C22.1694 30.3802 26.6398 28.1155 29.419 24.1465C35.0116 16.1612 31.7513 3.84016 31.7178 3.72006C31.7001 3.64988 31.6597 3.58754 31.6028 3.54278C31.546 3.49802 31.4759 3.47336 31.4035 3.47266H31.3969C31.3256 3.47257 31.2561 3.49515 31.1984 3.53714C31.1407 3.57913 31.0979 3.63836 31.076 3.70628C31.0629 3.76009 29.3993 8.96481 22.0559 11.0898C18.1044 12.1808 14.552 14.3896 11.8256 17.4508C11.2551 18.1124 10.7869 18.8556 10.4363 19.6558C6.1733 29.4116 15.0865 37.4835 17.7594 39.6143Z" fill="white"/>
</svg>
