<svg width="26" height="26" viewBox="0 0 26 26" fill="none" xmlns="http://www.w3.org/2000/svg">
<path d="M9.20832 10.2916C9.20832 10.8885 9.34699 11.454 9.59399 11.9567C9.06315 12.637 8.73274 13.4809 8.68832 14.4007C7.6689 13.3303 7.04165 11.883 7.04165 10.2927C7.04165 6.5974 10.4238 3.67674 14.2556 4.46324C16.5111 4.9269 18.3387 6.74365 18.8197 8.9959C18.9648 9.67624 18.9919 10.3425 18.9182 10.9795C18.8554 11.519 18.382 11.9177 17.8382 11.9177H17.7894C17.1481 11.9177 16.6974 11.3467 16.7678 10.7097C16.8155 10.2818 16.7906 9.83224 16.6812 9.37399C16.3583 8.01657 15.2512 6.91699 13.8916 6.6039C11.4151 6.03515 9.20724 7.91149 9.20724 10.2927L9.20832 10.2916ZM4.99415 8.88865C5.29099 7.1629 6.1349 5.5899 7.44357 4.36249C9.09999 2.81007 11.2688 2.04307 13.5427 2.1839C17.8252 2.46124 21.1737 6.21282 21.1239 10.7043C21.1033 12.585 19.5282 14.0822 17.6486 14.0822H15.0421C14.7777 13.1841 13.9566 12.5232 12.9729 12.5232C11.7758 12.5232 10.8062 13.4928 10.8062 14.6899C10.8062 15.887 11.7758 16.8566 12.9729 16.8566C13.5557 16.8566 14.0833 16.6237 14.4722 16.2488H17.6486C20.7025 16.2488 23.2472 13.8167 23.2906 10.7639C23.3707 5.10782 19.1219 0.373652 13.6825 0.0226522C10.7965 -0.164765 8.0589 0.815652 5.96265 2.78299C4.33874 4.30507 3.25865 6.32007 2.86974 8.48782C2.75165 9.14649 3.27274 9.75099 3.94115 9.75099C4.45249 9.75099 4.90857 9.39457 4.99415 8.88974V8.88865ZM13 18.4166C8.99707 18.4166 5.53365 20.8996 4.38207 24.5937C4.20332 25.1647 4.5229 25.7724 5.09382 25.9512C5.66365 26.1234 6.2714 25.8092 6.45015 25.2394C7.3049 22.4986 9.99699 20.5832 12.9989 20.5832C16.0008 20.5832 18.694 22.4986 19.5477 25.2394C19.6928 25.7031 20.1197 25.9999 20.5822 25.9999C20.6895 25.9999 20.7967 25.9837 20.9051 25.9512C21.476 25.7724 21.7945 25.1647 21.6168 24.5937C20.4652 20.8996 17.0018 18.4166 12.9989 18.4166H13Z" fill="#0F1014"/>
</svg>
