<svg width="26" height="26" viewBox="0 0 26 26" fill="none" xmlns="http://www.w3.org/2000/svg">
<path d="M23.8334 12.9997V18.4163C23.8334 21.6663 21.6667 23.833 18.4167 23.833H7.58335C4.33335 23.833 2.16669 21.6663 2.16669 18.4163V12.9997C2.16669 10.053 3.94335 7.99467 6.70585 7.64801C6.98752 7.60467 7.28002 7.58301 7.58335 7.58301H18.4167C18.6984 7.58301 18.9692 7.59383 19.2292 7.63716C22.0242 7.96216 23.8334 10.0313 23.8334 12.9997Z" stroke="#0F1014" stroke-width="2" stroke-linecap="round" stroke-linejoin="round"/>
<path d="M19.2307 7.63782C18.9707 7.59449 18.6998 7.58367 18.4182 7.58367H7.58484C7.2815 7.58367 6.989 7.60533 6.70734 7.64867C6.859 7.34533 7.07567 7.06367 7.33567 6.80367L10.8565 3.27199C12.3407 1.79866 14.7457 1.79866 16.2298 3.27199L18.1257 5.18951C18.819 5.87201 19.1873 6.73866 19.2307 7.63782Z" stroke="#0F1014" stroke-width="2" stroke-linecap="round" stroke-linejoin="round"/>
<path d="M23.8334 13.542H20.5834C19.3917 13.542 18.4167 14.517 18.4167 15.7087C18.4167 16.9003 19.3917 17.8753 20.5834 17.8753H23.8334" stroke="#0F1014" stroke-width="2" stroke-linecap="round" stroke-linejoin="round"/>
</svg>
