<svg width="24" height="24" viewBox="0 0 24 24" fill="none" xmlns="http://www.w3.org/2000/svg">
<g clip-path="url(#clip0_583_3927)">
<path d="M22.573 8.99983C22.029 8.99983 21.54 9.30182 21.297 9.78883L20.692 10.9998H16.82L17.425 10.1348C18.208 9.04683 18.097 7.56383 17.134 6.58483L13 2.91883C12.388 2.29583 11.545 2.03583 10.737 2.14783C10.41 1.82983 9.778 1.25983 9.466 1.04383C7.475 -0.332174 4.786 -0.364174 2.772 0.962826C0.937999 2.17183 -0.0960007 4.18483 0.00599928 6.32383C0.00599928 9.76383 0.359999 12.1048 2.166 13.8948C2.188 13.9148 6.589 17.8548 6.611 17.8748C7.388 18.6678 8.471 19.0738 9.562 18.9888C10.664 18.9048 11.67 18.3368 12.326 17.4248L14.721 13.9998H20.691L21.296 15.2108C21.54 15.6968 22.028 15.9998 22.572 15.9998C23.359 15.9998 23.999 15.3598 23.999 14.5728V10.4268C23.999 9.63983 23.36 8.99983 22.573 8.99983ZM3.323 1.79783C4.998 0.693826 7.239 0.720826 8.897 1.86683C9.062 1.98083 9.395 2.26983 9.691 2.53883C9.609 2.59083 9.525 2.63583 9.448 2.69783C8.721 3.27783 7.846 3.96083 6.891 4.70583C5.519 5.77783 3.983 6.97683 2.486 8.18083C1.914 8.64083 1.506 9.26283 1.275 9.95183C1.09 8.97883 1.005 7.80083 1.005 6.29883C0.919999 4.49283 1.786 2.80983 3.322 1.79683L3.323 1.79783ZM23 14.5728C23 14.8078 22.808 14.9998 22.573 14.9998C22.41 14.9998 22.264 14.9088 22.191 14.7638L21.447 13.2768C21.362 13.1078 21.189 13.0008 21 13.0008H14.461C14.298 13.0008 14.145 13.0808 14.051 13.2148L11.51 16.8478C11.031 17.5138 10.292 17.9318 9.485 17.9938C8.683 18.0528 7.894 17.7568 7.3 17.1538L2.873 13.1898C2.31 12.6168 2.015 11.8238 2.062 11.0138C2.109 10.2088 2.492 9.46082 3.112 8.96183C4.604 7.76083 6.136 6.56483 7.506 5.49583C8.464 4.74783 9.341 4.06283 10.07 3.48183C10.37 3.24183 10.73 3.12383 11.091 3.12383C11.529 3.12383 11.968 3.29883 12.31 3.64483L16.444 7.31083C17.029 7.90783 17.102 8.87183 16.608 9.55783L15.449 11.2148C15.342 11.3678 15.329 11.5678 15.415 11.7328C15.501 11.8988 15.672 12.0018 15.858 12.0018H20.998C21.187 12.0018 21.36 11.8948 21.445 11.7258L22.189 10.2388C22.262 10.0928 22.408 10.0028 22.571 10.0028C22.806 10.0028 22.998 10.1948 22.998 10.4298V14.5758L23 14.5728ZM22.717 18.0018C21.61 18.0668 20.695 18.4338 20.07 19.0598C19.83 19.2998 19.648 19.5678 19.501 19.8458C19.354 19.5678 19.171 19.2988 18.932 19.0598C18.307 18.4338 17.391 18.0678 16.284 18.0018C15.941 17.9738 15.601 18.1108 15.357 18.3558C15.113 18.6008 14.984 18.9388 15.005 19.2818C15.071 20.3878 15.437 21.3038 16.063 21.9308C16.895 22.7628 18.044 22.9838 19.003 22.9948V23.4988C19.003 23.7748 19.227 23.9988 19.503 23.9988C19.779 23.9988 20.003 23.7748 20.003 23.4988V22.9948C20.962 22.9838 22.111 22.7618 22.943 21.9308C23.569 21.3038 23.935 20.3878 24.001 19.2828C24.022 18.9388 23.893 18.6008 23.649 18.3558C23.403 18.1108 23.063 17.9828 22.721 18.0018H22.717ZM16.767 21.2248C16.198 20.6558 16.036 19.8228 16 19.2228C15.995 19.1428 16.037 19.0878 16.062 19.0638C16.086 19.0398 16.137 19.0008 16.211 19.0008H16.223C16.822 19.0368 17.655 19.1978 18.223 19.7678C18.844 20.3888 18.99 21.3118 18.999 21.9978C18.308 21.9848 17.38 21.8368 16.767 21.2248ZM22.233 21.2248C21.62 21.8368 20.692 21.9848 20.001 21.9968C20.01 21.3098 20.156 20.3878 20.777 19.7668C21.345 19.1978 22.178 19.0368 22.776 18.9998H22.789C22.863 18.9998 22.914 19.0388 22.938 19.0628C22.963 19.0868 23.005 19.1418 23 19.2228C22.964 19.8218 22.802 20.6558 22.233 21.2248Z" fill="white"/>
</g>
<defs>
<clipPath id="clip0_583_3927">
<rect width="24" height="24" fill="white"/>
</clipPath>
</defs>
</svg>
